<svg width="83" height="28" viewBox="0 0 83 28"><path d="M.7 22V1.21h11.85v1.77H2.74v7.32h8.7v1.77h-8.7V22H.7zm17.43 0h-1.95V6.49h1.95V22zm.45-20.19c0 .46-.14.825-.42 1.095-.28.27-.62.405-1.02.405s-.74-.135-1.02-.405-.42-.635-.42-1.095c0-.46.14-.825.42-1.095.28-.27.62-.405 1.02-.405s.74.135 1.02.405.42.635.42 1.095zM33.4 20.2c-.12.1-.3.215-.54.345-.24.13-.535.265-.885.405s-.75.255-1.2.345c-.45.09-.955.135-1.515.135-.9 0-1.77-.14-2.61-.42-.84-.28-1.575-.72-2.205-1.32-.63-.6-1.135-1.375-1.515-2.325-.38-.95-.57-2.105-.57-3.465 0-1.1.17-2.12.51-3.06.34-.94.825-1.755 1.455-2.445.63-.69 1.4-1.23 2.31-1.62.91-.39 1.935-.585 3.075-.585 1.44 0 2.595.095 3.465.285.87.19 1.585.375 2.145.555v14.16c0 2.32-.6 3.975-1.8 4.965-1.2.99-3.01 1.485-5.43 1.485-1 0-1.905-.075-2.715-.225-.81-.15-1.505-.325-2.085-.525l.39-1.77c.48.22 1.135.41 1.965.57.83.16 1.665.24 2.505.24 1.84 0 3.175-.355 4.005-1.065.83-.71 1.245-1.925 1.245-3.645V20.2zm-.03-11.82c-.34-.1-.78-.195-1.32-.285-.54-.09-1.31-.135-2.31-.135-.84 0-1.585.145-2.235.435-.65.29-1.205.7-1.665 1.23-.46.53-.81 1.16-1.05 1.89s-.36 1.535-.36 2.415c0 1.02.14 1.895.42 2.625.28.73.645 1.325 1.095 1.785.45.46.965.795 1.545 1.005.58.21 1.17.315 1.77.315.88 0 1.685-.13 2.415-.39s1.295-.56 1.695-.9V8.38zm19.02 13.08c-.58.16-1.36.34-2.34.54-.98.2-2.18.3-3.6.3-1.16 0-2.13-.17-2.91-.51-.78-.34-1.41-.82-1.89-1.44s-.825-1.37-1.035-2.25c-.21-.88-.315-1.85-.315-2.91v-8.7h1.95v8.07c0 1.1.08 2.03.24 2.79.16.76.42 1.375.78 1.845.36.47.825.81 1.395 1.02.57.21 1.265.315 2.085.315.92 0 1.72-.05 2.4-.15.68-.1 1.11-.19 1.29-.27V6.49h1.95v14.97zM62.83 6.19c.64 0 1.245.05 1.815.15.57.1.965.2 1.185.3l-.39 1.68c-.16-.08-.485-.165-.975-.255S63.33 7.93 62.53 7.93c-.84 0-1.515.06-2.025.18s-.845.22-1.005.3V22h-1.95V7.21c.5-.22 1.19-.445 2.07-.675.88-.23 1.95-.345 3.21-.345zm5.01 8.04c0-1.36.195-2.545.585-3.555.39-1.01.9-1.855 1.53-2.535.63-.68 1.35-1.185 2.16-1.515.81-.33 1.645-.495 2.505-.495 1.9 0 3.415.62 4.545 1.86 1.13 1.24 1.695 3.15 1.695 5.73 0 .16-.005.32-.015.48-.01.16-.025.31-.045.45H69.91c.06 1.9.53 3.36 1.41 4.38.88 1.02 2.28 1.53 4.2 1.53 1.06 0 1.9-.1 2.52-.3.62-.2 1.07-.37 1.35-.51l.36 1.68c-.28.16-.805.35-1.575.57-.77.22-1.675.33-2.715.33-1.36 0-2.52-.2-3.48-.6-.96-.4-1.75-.96-2.37-1.68-.62-.72-1.07-1.575-1.35-2.565s-.42-2.075-.42-3.255zM78.85 13c-.04-1.62-.42-2.88-1.14-3.78-.72-.9-1.74-1.35-3.06-1.35-.7 0-1.325.14-1.875.42-.55.28-1.03.655-1.44 1.125-.41.47-.73 1.015-.96 1.635-.23.62-.365 1.27-.405 1.95h8.88z" /></svg>
